<svg width="400" height="170" viewBox="0 0 400 170" fill="none" xmlns="http://www.w3.org/2000/svg">
<g clip-path="url(#clip0_4_80)">
<path fill-rule="evenodd" clip-rule="evenodd" d="M0 23.008V145.872C0 158.736 28.208 168.88 63.456 168.88V23.008H0Z" fill="#3E3E3E"/>
<path fill-rule="evenodd" clip-rule="evenodd" d="M62.688 169.216H63.696C98.624 169.216 127.152 158.704 127.152 146.208V23.024H62.688V169.216Z" fill="#A0A1A2"/>
<path fill-rule="evenodd" clip-rule="evenodd" d="M126.912 23.008C126.912 35.872 98.704 46.016 63.456 46.016C28.208 46.016 0 35.872 0 23.008C0 10.144 28.528 0 63.456 0C98.384 0 126.912 10.48 126.912 23.008Z" fill="white"/>
<path fill-rule="evenodd" clip-rule="evenodd" d="M113.824 21.664C113.824 30.112 91.312 36.88 63.44 36.88C35.568 36.88 13.088 30.112 13.088 21.664C13.088 13.216 35.6 6.416 63.44 6.416C91.28 6.416 113.824 13.184 113.824 21.664Z" fill="#7FBA00"/>
<path fill-rule="evenodd" clip-rule="evenodd" d="M103.408 31.136C110.128 28.416 113.824 25.376 113.824 21.648C113.824 13.2 91.312 6.43201 63.44 6.43201C35.568 6.43201 13.088 13.2 13.088 21.648C13.088 25.056 17.12 28.416 23.504 31.136C32.544 27.408 46.992 25.04 63.44 25.04C79.888 25.04 94 27.392 103.408 31.136Z" fill="#B8D432"/>
<path fill-rule="evenodd" clip-rule="evenodd" d="M62.448 169.216V108.288C53.04 108.288 44.992 103.216 40.304 95.744C35.584 103.2 27.888 108.288 18.48 108.288C11.072 108.288 4.688 105.248 0 100.176V146.208C0 158.72 27.872 168.864 62.448 169.216Z" fill="#3999C6"/>
<path fill-rule="evenodd" clip-rule="evenodd" d="M107.696 108.304C98.144 108.304 89.632 103.232 84.848 95.76C80.416 103.216 72.24 107.968 62.688 108.304V169.232C98.144 169.232 127.12 158.72 127.12 146.224V99.84C122.368 104.912 115.536 108.32 107.696 108.32V108.304Z" fill="#59B4D9"/>
<path d="M195.216 63.984H171.952L167.088 77.968H156.24L178.928 17.904H188.288L211.024 77.968H200.128L195.216 63.984ZM174.88 55.568H192.288L183.584 30.656L174.88 55.568Z" fill="black"/>
<path d="M228.048 69.968H251.808V77.968H215.584V71.408L238.224 41.424H215.984V33.344H250.928V39.696L228.032 69.968H228.048Z" fill="black"/>
<path d="M286.88 73.6C283.936 77.072 279.76 78.8 274.336 78.8C269.488 78.8 265.84 77.376 263.344 74.544C260.848 71.712 259.616 67.616 259.616 62.256V33.328H269.648V62.112C269.648 67.776 272 70.608 276.704 70.608C281.408 70.608 284.864 68.864 286.56 65.376V33.328H296.576V77.952H287.136L286.896 73.584L286.88 73.6Z" fill="black"/>
<path d="M330.144 42.496C328.832 42.272 327.456 42.16 326.064 42.16C321.472 42.16 318.384 43.92 316.784 47.44V77.968H306.768V33.328H316.336L316.576 38.32C318.992 34.448 322.352 32.512 326.64 32.512C328.064 32.512 329.248 32.704 330.192 33.088L330.144 42.496Z" fill="black"/>
<path d="M355.344 78.784C348.992 78.784 343.84 76.784 339.904 72.784C335.952 68.784 333.984 63.456 333.984 56.8V55.568C333.984 51.12 334.848 47.136 336.56 43.632C338.272 40.128 340.688 37.392 343.792 35.44C346.896 33.488 350.368 32.512 354.192 32.512C360.272 32.512 364.96 34.448 368.272 38.32C371.584 42.192 373.248 47.68 373.248 54.784V58.832H344.08C344.384 62.512 345.616 65.44 347.776 67.584C349.936 69.728 352.656 70.8 355.92 70.8C360.512 70.8 364.256 68.944 367.136 65.232L372.544 70.384C370.752 73.056 368.368 75.12 365.392 76.592C362.416 78.064 359.056 78.8 355.344 78.8V78.784ZM354.144 40.544C351.392 40.544 349.168 41.504 347.488 43.44C345.808 45.376 344.72 48.048 344.256 51.488H363.36V50.752C363.136 47.392 362.24 44.864 360.672 43.136C359.104 41.424 356.928 40.56 354.16 40.56L354.144 40.544Z" fill="black"/>
<path d="M156.992 150.464V110.368H168.304C171.792 110.368 174.88 111.136 177.552 112.688C180.224 114.24 182.304 116.432 183.76 119.264C185.216 122.112 185.952 125.376 185.984 129.072V131.632C185.984 135.408 185.248 138.736 183.792 141.568C182.336 144.416 180.256 146.608 177.536 148.128C174.832 149.648 171.68 150.432 168.08 150.464H156.976H156.992ZM162.288 114.688V146.144H167.856C171.936 146.144 175.104 144.88 177.376 142.336C179.648 139.792 180.784 136.192 180.784 131.504V129.168C180.784 124.608 179.712 121.072 177.568 118.544C175.424 116.016 172.4 114.736 168.464 114.704H162.288V114.688Z" fill="black"/>
<path d="M211.584 150.464C211.296 149.872 211.056 148.832 210.864 147.328C208.496 149.792 205.664 151.024 202.384 151.024C199.44 151.024 197.04 150.192 195.152 148.528C193.264 146.864 192.336 144.768 192.336 142.208C192.336 139.104 193.52 136.688 195.872 134.976C198.224 133.264 201.552 132.4 205.824 132.4H210.784V130.064C210.784 128.288 210.256 126.864 209.184 125.808C208.112 124.752 206.544 124.224 204.48 124.224C202.656 124.224 201.136 124.688 199.904 125.6C198.672 126.512 198.064 127.632 198.064 128.928H192.944C192.944 127.44 193.472 126 194.528 124.624C195.584 123.232 197.024 122.144 198.832 121.328C200.64 120.528 202.624 120.112 204.8 120.112C208.24 120.112 210.928 120.976 212.864 122.688C214.816 124.4 215.824 126.768 215.888 129.776V143.488C215.888 146.224 216.24 148.4 216.928 150.016V150.464H211.584ZM203.136 146.576C204.736 146.576 206.256 146.16 207.68 145.344C209.104 144.528 210.144 143.44 210.8 142.128V136.016H206.8C200.56 136.016 197.44 137.84 197.44 141.504C197.44 143.104 197.968 144.352 199.04 145.248C200.112 146.144 201.472 146.592 203.136 146.592V146.576Z" fill="black"/>
<path d="M230.784 113.44V120.656H236.352V124.592H230.784V143.104C230.784 144.304 231.024 145.2 231.52 145.792C232.016 146.384 232.864 146.688 234.048 146.688C234.64 146.688 235.44 146.576 236.464 146.352V150.464C235.12 150.832 233.824 151.008 232.56 151.008C230.288 151.008 228.56 150.32 227.408 148.944C226.256 147.568 225.68 145.616 225.68 143.072V124.592H220.256V120.656H225.68V113.44H230.768H230.784Z" fill="black"/>
<path d="M260.688 150.464C260.4 149.872 260.16 148.832 259.968 147.328C257.6 149.792 254.768 151.024 251.488 151.024C248.544 151.024 246.144 150.192 244.256 148.528C242.368 146.864 241.44 144.768 241.44 142.208C241.44 139.104 242.624 136.688 244.976 134.976C247.328 133.264 250.656 132.4 254.928 132.4H259.888V130.064C259.888 128.288 259.36 126.864 258.288 125.808C257.216 124.752 255.648 124.224 253.584 124.224C251.76 124.224 250.24 124.688 249.008 125.6C247.776 126.512 247.168 127.632 247.168 128.928H242.048C242.048 127.44 242.576 126 243.632 124.624C244.688 123.232 246.128 122.144 247.936 121.328C249.744 120.528 251.728 120.112 253.904 120.112C257.344 120.112 260.032 120.976 261.968 122.688C263.92 124.4 264.928 126.768 264.992 129.776V143.488C264.992 146.224 265.344 148.4 266.032 150.016V150.464H260.688ZM252.24 146.576C253.84 146.576 255.36 146.16 256.784 145.344C258.208 144.528 259.248 143.44 259.904 142.128V136.016H255.904C249.664 136.016 246.544 137.84 246.544 141.504C246.544 143.104 247.072 144.352 248.144 145.248C249.216 146.144 250.576 146.592 252.24 146.592V146.576Z" fill="black"/>
<path d="M293.056 146.144H312.064V150.464H287.744V110.368H293.056V146.144Z" fill="black"/>
<path d="M335.696 150.464C335.408 149.872 335.168 148.832 334.976 147.328C332.608 149.792 329.776 151.024 326.496 151.024C323.552 151.024 321.152 150.192 319.264 148.528C317.376 146.864 316.448 144.768 316.448 142.208C316.448 139.104 317.632 136.688 319.984 134.976C322.336 133.264 325.664 132.4 329.936 132.4H334.896V130.064C334.896 128.288 334.368 126.864 333.296 125.808C332.224 124.752 330.656 124.224 328.592 124.224C326.768 124.224 325.248 124.688 324.016 125.6C322.784 126.512 322.176 127.632 322.176 128.928H317.056C317.056 127.44 317.584 126 318.64 124.624C319.696 123.232 321.136 122.144 322.944 121.328C324.752 120.528 326.736 120.112 328.912 120.112C332.352 120.112 335.04 120.976 336.976 122.688C338.928 124.4 339.936 126.768 340 129.776V143.488C340 146.224 340.352 148.4 341.04 150.016V150.464H335.696ZM327.248 146.576C328.848 146.576 330.368 146.16 331.792 145.344C333.216 144.528 334.256 143.44 334.912 142.128V136.016H330.912C324.672 136.016 321.552 137.84 321.552 141.504C321.552 143.104 322.08 144.352 323.152 145.248C324.224 146.144 325.584 146.592 327.248 146.592V146.576Z" fill="black"/>
<path d="M356.288 136.672L353.088 140V150.464H348V108.16H353.088V133.744L355.808 130.464L365.088 120.656H371.28L359.68 133.104L372.624 150.448H366.64L356.256 136.656L356.288 136.672Z" fill="black"/>
<path d="M388.384 151.008C384.352 151.008 381.056 149.68 378.528 147.024C376 144.368 374.72 140.816 374.72 136.384V135.44C374.72 132.48 375.28 129.84 376.416 127.52C377.552 125.2 379.12 123.376 381.152 122.064C383.184 120.752 385.376 120.096 387.744 120.096C391.616 120.096 394.624 121.376 396.784 123.92C398.928 126.48 400 130.128 400 134.88V137.008H379.808C379.888 139.952 380.736 142.32 382.384 144.128C384.032 145.936 386.112 146.848 388.656 146.848C390.464 146.848 391.984 146.48 393.232 145.744C394.48 145.008 395.568 144.032 396.512 142.832L399.632 145.248C397.136 149.088 393.392 151.008 388.4 151.008H388.384ZM387.744 124.288C385.696 124.288 383.968 125.04 382.56 126.528C381.168 128.032 380.304 130.128 379.968 132.816H394.896V132.432C394.752 129.84 394.048 127.84 392.8 126.416C391.552 124.992 389.856 124.288 387.728 124.288H387.744Z" fill="black"/>
</g>
<defs>
<clipPath id="clip0_4_80">
<rect width="400" height="169.216" fill="white"/>
</clipPath>
</defs>
</svg>
